<?xml version="1.0" encoding="utf-8"?>
<!-- Generator: Adobe Illustrator 22.1.0, SVG Export Plug-In . SVG Version: 6.00 Build 0)  -->
<svg version="1.1" id="Layer_1" xmlns="http://www.w3.org/2000/svg" xmlns:xlink="http://www.w3.org/1999/xlink" x="0px" y="0px"
	 viewBox="0 0 532.1 216.2" style="enable-background:new 0 0 532.1 216.2;" xml:space="preserve">
<style type="text/css">
	.st0{fill:none;stroke:#FFFFFF;stroke-width:0.4238;stroke-dasharray:9.6665,3.2222;}
	.st1{fill:none;stroke:#FFFFFF;stroke-width:0.8055;stroke-miterlimit:10;}
	.st2{fill:none;}
	.st3{enable-background:new    ;}
	.st4{fill:#FFFFFF;}
</style>
<path class="st0" d="M23.1,95.4c0.1-1.5,0.4-3.3,0.9-5.2c0.6-2.6,1.6-5.4,2.9-8.4s3.3-5.6,6-7.6c2.7-2.1,5.8-3.1,9.3-3.1
	c2.7,0,4.8,0.7,6.3,2v0.1c-1,1.1-1.5,2.3-1.5,3.5c0,0.9,0.3,1.6,0.9,2.3c0.6,0.6,1.4,0.9,2.4,0.9c1.2,0,2.4-0.5,3.4-1.5
	s1.6-2.5,1.6-4.5c0-2.6-1.1-4.8-3.4-6.4s-5.1-2.4-8.6-2.4c-5.4,0-10.2,1.6-14.4,4.9c-4.3,3.3-7.5,7.3-9.6,12.1
	c-2,4.4-3.1,8.9-3.2,13.5"/>
<path class="st0" d="M99.9,92.6l4.9-19.4c0.5-1.9,0.7-3.2,0.7-3.8c0-0.8-0.3-1.5-0.8-2s-1.2-0.8-2-0.8c-1.8,0-3,1-3.9,3
	c-2.6-3-5.9-4.6-9.9-4.6c-4.9,0-9.3,1.8-13.2,5.5c-3.9,3.6-6.8,7.9-8.7,12.8c-1.4,3.6-2.2,7.1-2.6,10.5"/>
<path class="st0" d="M71.8,93.6L71.8,93.6c0.3-2,0.8-4.3,1.7-6.9c0.8-2.6,1.8-5.1,3-7.4c1.1-2.3,2.7-4.2,4.8-5.8
	c2-1.6,4.3-2.4,6.7-2.4c2.6,0,4.5,1,5.7,2.9s1.9,4.2,1.9,6.9c0,2-0.9,6-2.6,12"/>
<path class="st0" d="M129.6,91.5l11.6-46.4c0.2-0.6,0.3-1.1,0.3-1.6c0-1.2-0.6-1.8-1.8-1.8l-2.9,0.2c-2.1,0.2-4.2,0.5-6.3,0.8
	c-2.2,0.3-3.4,0.6-3.7,0.9c-0.8,0.7-1.2,1.9-1.2,3.6c0,0.6,0.1,1,0.2,1.2c0.2,0.3,0.5,0.4,1,0.5s1,0.1,1.5,0.1s1.2,0,2.2,0
	s2,0,2.9,0.1l-10.6,42.6"/>
<path class="st0" d="M163.2,90.3c0.5-1.6,1-3.3,1.7-5.1c2.3-6.4,3.5-10.3,3.5-11.7c0-2.5-0.8-4.5-2.3-6.1s-3.5-2.4-6-2.4
	c-2.3,0-4.5,0.7-6.6,2.1s-3.7,3.1-4.8,5c-1.2,1.9-2.1,3.7-2.7,5.3c-0.7,1.6-1,2.8-1,3.4c0,0.8,0.8,1.2,2.4,1.2c0.6,0,1.1,0,1.4,0
	c0.3,0,0.6,0,0.9-0.1c0.3-0.1,0.5-0.1,0.6-0.2s0.2-0.2,0.3-0.4s0.2-0.4,0.3-0.6s0.2-0.5,0.3-0.9s0.3-0.8,0.4-1.2
	c0.8-2.2,1.8-4,3.1-5.5c1.3-1.4,2.6-2.1,4-2.1c1.8,0,2.6,1,2.6,3.1c0,0.8-1.2,4.4-3.5,11c-0.7,1.9-1.2,3.6-1.7,5.3"/>
<path class="st0" d="M189,89.4l4.6-18.5c0.2-1.3,0.2-2.2,0.2-2.6c-0.2-1.7-1.1-2.5-2.8-2.5c-1.5,0-2.7,0.8-3.6,2.5
	c-0.1,0.3-1.9,7.4-5.4,21.4"/>
<path class="st0" d="M279.5,86.1c1.3-4.5,2-8,2-10.4c0-3.9-1.1-6.6-3.3-8.2c-2.2-1.6-4.9-2.4-8.2-2.4c-6.7,0-12.2,3-16.7,8.9h-0.1
	c-0.9-6-4.8-8.9-11.6-8.9c-5.9,0-11.3,2.7-16.2,8.1c-0.3-1.7-0.8-3.2-1.6-4.4c-0.8-1.2-1.7-2.1-2.7-2.5c-1-0.5-1.9-0.8-2.7-1
	s-1.4-0.2-2-0.2c-1.8,0-3.4,0.5-4.9,1.6s-2.7,2.4-3.6,3.8c-0.9,1.5-1.6,3.1-2.3,4.7c-0.6,1.6-1.1,2.9-1.3,3.9s-0.3,1.5-0.3,1.7
	c0,0.8,0.7,1.2,2,1.2h1.7c0.9,0,1.5-0.2,1.8-0.6c0.1-0.2,0.4-1.2,0.9-3s1.1-3.4,1.9-5c0.8-1.5,1.8-2.3,3-2.3c0.7,0,1.4,0.3,2.2,1
	s1.2,1.7,1.2,3.1c0,0.3-0.2,1.2-0.5,2.9l-2.5,10.2"/>
<path class="st0" d="M251.8,87.1c0.1-0.4,0.3-0.8,0.4-1.1c0.7-1.7,1.7-3.6,2.8-5.7c1.2-2.1,2.4-3.7,3.6-4.9c1.3-1.2,2.8-2.2,4.5-3.1
	c1.7-0.8,3.5-1.3,5.4-1.3h0.1c3.9,0,5.9,1.9,5.9,5.8c0,2.1-0.7,5.2-2,9.5"/>
<path class="st0" d="M223.1,88.1c0.5-1.4,1.1-2.9,1.8-4.4c1.6-3.7,3.7-6.7,6.4-9.1s5.7-3.6,9.1-3.6h0.1c3.8,0,5.7,1.9,5.7,5.8
	c0,1.4-0.7,4.9-2.1,10.5"/>
<path class="st0" d="M351.1,83.5c0.7-1.4,1.4-3,2.3-4.6c1.3-2.4,2.8-4.3,4.7-5.7c1.8-1.4,3.7-2.1,5.7-2.1c1.8,0,3.4,0.8,4.7,2.5
	c-1.2,1.2-1.8,2.5-1.8,3.8c0,0.9,0.3,1.6,0.9,2.2s1.3,0.9,2.3,0.9c1.3,0,2.4-0.5,3.4-1.5s1.5-2.6,1.5-4.7c0-2.7-0.9-4.9-2.8-6.6
	c-1.8-1.7-4.2-2.5-7.1-2.5c-2.1,0-4.1,0.4-6,1.2s-3.3,1.6-4.2,2.3c-0.9,0.8-2,1.8-3.3,3.1c-0.7-2.3-1.9-4-3.6-5.1s-3.5-1.5-5.3-1.5
	s-3.4,0.5-4.9,1.6s-2.7,2.3-3.6,3.8s-1.7,3-2.3,4.6c-0.7,1.6-1.1,2.9-1.4,3.8s-0.3,1.6-0.3,1.8c0,1,0.7,1.4,2.1,1.4h1.6
	c0.9,0,1.5-0.2,1.8-0.7c0.1-0.2,0.5-1.2,1-3s1.2-3.5,2-5s1.8-2.3,3-2.3c0.7,0,1.5,0.3,2.2,1s1.1,1.7,1.1,3.1c0,0.4-0.2,1.3-0.5,2.8
	l-1.4,5.7"/>
<path class="st0" d="M422.2,80.9c0-5-1.5-8.9-4.4-11.6c-2.9-2.8-6.8-4.2-11.6-4.2c-5.4,0-10.2,1.7-14.5,5s-7.5,7.4-9.6,12.1
	c0,0.1-0.1,0.1-0.1,0.2"/>
<path class="st0" d="M389.8,82.1c0.2-0.4,0.4-0.8,0.6-1.2c1.4-2.8,3.4-5.1,6-7s5.5-2.8,8.9-2.8c2.7,0,5,0.8,6.9,2.3s2.9,4.1,2.9,7.8
	v0.1"/>
<path class="st0" d="M442.6,80.2c-0.1-0.4-0.2-0.9-0.2-1.4c0-0.8,0.2-1.7,0.5-2.8c0.4-1.1,1.3-2.1,2.8-3.3c1.5-1.1,3.5-1.7,6-1.7
	c3,0,5.2,0.8,6.8,2.3v0.1c-1,1.2-1.4,2.3-1.4,3.2s0.3,1.6,0.9,2.1c0.5,0.4,1,0.7,1.7,0.8l1.4-0.1c0.8-0.2,1.6-0.6,2.4-1.3
	c1-1,1.5-2.4,1.5-4.3c0-2.6-1.1-4.8-3.4-6.4S456.5,65,453,65c-3.2,0-6,0.6-8.4,1.7s-4.2,2.5-5.4,4.3c-1.2,1.7-2,3.4-2.6,5
	c-0.5,1.6-0.8,3.1-0.8,4.4l0,0"/>
<path class="st0" d="M487.1,78.6c0-0.8,0.2-1.6,0.5-2.6c0.4-1.1,1.3-2.1,2.8-3.3c1.5-1.1,3.5-1.7,6-1.7c3,0,5.2,0.8,6.8,2.3v0.1
	c-1,1.2-1.4,2.3-1.4,3.2c0,0.5,0.1,1,0.3,1.4c0.1,0.3,0.3,0.5,0.6,0.8c0.6,0.5,1.3,0.8,2.2,0.8c1.2,0,2.2-0.5,3.2-1.4
	c0.1-0.1,0.2-0.2,0.3-0.4c0.8-0.9,1.2-2.2,1.2-3.9c0-2.6-1.1-4.8-3.4-6.4c-2.2-1.6-5.1-2.4-8.6-2.4c-3.2,0-6,0.6-8.4,1.7
	s-4.2,2.5-5.4,4.3c-1.2,1.7-2,3.4-2.6,5c-0.3,1-0.6,1.9-0.7,2.8"/>
<path class="st1" d="M15.9,95.6c0,0.4,0,0.8,0,1.2c0,4.9,1.4,8.8,4.2,11.7c2.8,2.9,6.8,4.4,12,4.4c3.9,0,7.6-0.7,11.2-2.1
	c3.6-1.4,6.4-2.9,8.2-4.4c1.9-1.6,2.8-2.8,2.8-3.7c0-0.3-0.4-0.9-1.2-1.8s-1.5-1.3-2.1-1.3c-0.2,0-1,0.6-2.4,1.8s-3.5,2.4-6.2,3.7
	c-2.8,1.2-5.9,1.8-9.4,1.8h-0.1c-6.6,0-9.9-3.3-9.9-10c0-0.5,0-0.9,0.1-1.4"/>
<path class="st1" d="M92.9,92.8c-0.2,0.6-0.4,1.2-0.5,1.9c-1.3,3.4-3.2,6.2-5.9,8.5c-2.6,2.3-5.3,3.5-8,3.5c-1.9,0-3.5-0.6-5-1.9
	c-1.4-1.3-2.1-3.6-2.1-6.9c0-1,0.1-2.4,0.4-4.3"/>
<path class="st1" d="M64.4,93.9c-0.1,1.2-0.2,2.4-0.2,3.7c0,5.5,1.3,9.4,4,11.7c2.7,2.3,5.7,3.5,9.2,3.5c4.8,0,9.4-2.1,13.7-6.2
	c1.5,4.1,4.4,6.2,8.6,6.2c1.8,0,3.4-0.5,5-1.6c1.5-1,2.7-2.3,3.6-3.8s1.6-3,2.3-4.6c0.6-1.6,1.1-2.9,1.3-3.9s0.3-1.6,0.3-1.8
	c0-0.5-0.2-0.8-0.5-1c-0.4-0.2-1.2-0.3-2.4-0.3c-1.5,0-2.4,0.2-2.6,0.6c-0.1,0.2-0.4,1.2-0.9,3s-1.1,3.4-1.9,4.9s-1.8,2.2-3,2.2
	c-0.8,0-1.5-0.3-2.2-1s-1.1-1.7-1.1-3c0-1.1,0.2-2.2,0.5-3.3l1.7-6.7"/>
<path class="st1" d="M122.5,91.8l-1,3.9c-1,4.3-1.5,6.9-1.5,7.7c0,2.7,0.9,4.9,2.6,6.7c1.8,1.8,3.9,2.6,6.5,2.6
	c1.8,0,3.4-0.5,4.9-1.6s2.7-2.4,3.6-3.8s1.7-3,2.3-4.6s1.1-2.9,1.3-3.9s0.3-1.5,0.3-1.7c0-0.8-0.9-1.2-2.7-1.2h-1.2
	c-1.1,0-1.8,0.5-2,1.4c-0.1,0.1-0.2,0.5-0.3,1.1s-0.2,1.1-0.3,1.3c-0.1,0.3-0.2,0.7-0.4,1.3c-0.2,0.6-0.3,1.1-0.5,1.5
	s-0.3,0.8-0.6,1.3c-0.2,0.5-0.4,0.9-0.6,1.2s-0.4,0.6-0.7,0.9s-0.6,0.5-0.9,0.6s-0.7,0.2-1,0.2c-0.8,0-1.5-0.3-2.3-1
	c-0.7-0.7-1.1-1.7-1.1-3.2c0-0.4,0.1-0.9,0.3-1.6l0.2-1l2.1-8.4"/>
<path class="st1" d="M181.9,89.6c-0.1,0.5-0.3,1-0.4,1.6c-1.3,5-3.2,8.9-5.6,11.6c-2.4,2.7-5,4-7.8,4c-1.8,0-3.4-0.6-4.7-1.7
	s-2-3-2-5.5c0-2.3,0.6-5.4,1.8-9.3"/>
<path class="st1" d="M156.3,90.6c-1.2,4.2-1.8,7.6-1.8,10.3c0,4.3,1.2,7.4,3.6,9.2c2.4,1.8,5.3,2.7,8.7,2.7c4.5,0,8.7-2,12.5-6.1
	c1.5,4,4.4,6,8.6,6c2.1,0,4.1-0.8,5.8-2.3s3.1-3.3,4-5.3s1.6-3.8,2-5.3s0.7-2.4,0.7-2.7c0-0.2,0-0.4,0-0.5s-0.1-0.3-0.3-0.4
	c-0.1-0.1-0.3-0.2-0.4-0.2c-0.1,0-0.2-0.1-0.4-0.1s-0.3,0-0.4,0s-0.3,0-0.6,0s-0.5,0-0.5,0c-1.6,0-2.6,0.2-2.9,0.6
	c-0.1,0.1-0.4,1.1-0.9,2.9s-1.1,3.5-1.9,5c-0.8,1.5-1.8,2.3-3,2.3c-0.7,0-1.5-0.3-2.2-1c-0.7-0.6-1.1-1.7-1.1-3.1
	c0-0.6,0.3-1.8,0.8-3.7l2.4-9.6"/>
<path class="st1" d="M272.6,86.4c-0.5,1.6-1.1,3.4-1.8,5.3c-2.5,7.1-3.8,11.3-3.8,12.7c0,2.5,0.8,4.5,2.4,6c1.6,1.6,3.6,2.3,6.1,2.3
	c3,0,5.7-1.2,8.1-3.6c2.5-2.4,4.2-4.7,5.2-7.1c1-2.3,1.6-4,1.6-5c0-0.5-0.2-0.8-0.6-1s-1.2-0.3-2.5-0.3c-1.1,0-1.8,0.1-2.2,0.3
	s-0.6,0.7-0.8,1.5c-1.9,6-4.4,9-7.5,9c-1.7,0-2.6-1-2.6-3.1c0-0.8,1.2-4.8,3.7-12c0.7-2,1.2-3.8,1.7-5.5"/>
<path class="st1" d="M215.5,88.4l-4.8,19.1c-0.3,1.4-0.5,2.3-0.4,2.7c0.1,1.7,1.1,2.5,2.8,2.5c1.6,0,2.7-0.7,3.6-2.2
	c0.3-0.6,0.9-2.5,1.6-5.7c0.7-3.2,1.6-6.6,2.6-10.2c0.6-2.1,1.4-4.3,2.2-6.5"/>
<path class="st1" d="M244.1,87.4c-0.5,2-1.1,4.3-1.8,6.8c-2.6,9.7-3.8,15-3.8,15.9c0,0.8,0.3,1.4,0.9,1.9c0.6,0.5,1.3,0.7,2.1,0.7
	c2,0,3.5-1.5,4.2-4.4c0.1-0.5,0.5-2,1-4.3c0.5-2.4,1-4.3,1.4-5.7c0.4-1.5,1-3.5,1.8-6c0.6-2,1.3-3.8,1.8-5.3"/>
<path class="st1" d="M342.8,83.8l-5.7,22.9c-0.4,1.4-0.6,2.5-0.6,3.3c0,1.8,0.9,2.7,2.8,2.7c1,0,1.9-0.3,2.6-0.8s1.2-1.5,1.7-2.8
	s0.9-2.7,1.2-4.1c0.3-1.4,0.8-3.5,1.5-6.1c0.6-2.6,1.2-5.1,1.8-7.4c0.7-2.1,1.4-4.1,2.2-6.1c0.2-0.6,0.6-1.3,0.9-1.9"/>
<g>
	<path class="st1" d="M415,81.2c0,1.8-0.3,4-0.9,6.5c-0.6,2.6-1.6,5.4-2.9,8.4s-3.3,5.6-6,7.6c-2.7,2.1-5.8,3.1-9.4,3.1
		c-2.7,0-4.9-0.8-6.8-2.3s-2.9-4.1-2.9-7.8c0-2.3,0.4-4.9,1.1-7.6c0.6-2.3,1.5-4.7,2.6-7.1"/>
	<path class="st1" d="M382.1,82.4c-2.1,4.7-3.1,9.5-3.1,14.4c0,5.1,1.4,9,4.3,11.8s6.7,4.2,11.5,4.2c4.1,0,8-1,11.6-3
		s6.5-4.6,8.7-7.7s4-6.5,5.2-10.2c1.3-3.7,1.9-7.3,1.9-10.8c0-0.1,0-0.1,0-0.2"/>
</g>
<path class="st1" d="M435.7,80.5c0,2.3,0.7,4.2,1.9,5.8c1.3,1.6,2.9,2.7,4.7,3.4c0.5,0.2,2.2,0.6,4.9,1.2c2.7,0.6,4.8,1.3,6.2,2.3
	c1.4,1,2.1,2.4,2.1,4.3c0,0.8-0.2,1.7-0.5,2.6s-0.9,1.9-1.8,3s-2.2,2-4,2.7s-4,1.1-6.6,1.1c-0.1,0-0.1,0-0.2,0
	c-4.3,0-7.1-1.1-8.5-3.3c1.1-1.3,1.7-2.5,1.7-3.7c0-0.9-0.3-1.6-0.9-2.2s-1.4-0.9-2.3-0.9c-1.2,0-2.4,0.5-3.3,1.5
	c-1,1-1.5,2.5-1.5,4.6c0,3,1.3,5.4,4,7.3s6.1,2.8,10.3,2.8c3.3,0,6.3-0.5,8.9-1.4s4.6-2.1,6-3.5s2.6-2.9,3.5-4.6s1.5-3.1,1.7-4.4
	c0.3-1.2,0.4-2.3,0.4-3.3c0-4.3-2.1-7.5-6.4-9.7c-1.2-0.6-3.1-1.2-5.6-1.6c-2.5-0.5-4.4-1.1-5.8-1.8c-0.9-0.5-1.5-1.3-1.8-2.4"/>
<path class="st1" d="M480.5,78.8c-0.1,0.5-0.1,1.1-0.1,1.6c0,2.3,0.6,4.3,1.9,5.9s2.9,2.7,4.7,3.4c0.5,0.2,2.2,0.6,4.9,1.2
	s4.8,1.3,6.2,2.3c1.4,1,2.1,2.4,2.1,4.3c0,0.8-0.2,1.7-0.5,2.6s-0.9,1.9-1.8,3s-2.2,2-4,2.7s-4,1.1-6.6,1.1c-0.1,0-0.1,0-0.2,0
	c-4.3,0-7.1-1.1-8.5-3.3c1.1-1.3,1.7-2.5,1.7-3.7c0-0.9-0.3-1.6-0.9-2.2s-1.4-0.9-2.3-0.9c-1.2,0-2.4,0.5-3.3,1.5s-1.5,2.5-1.5,4.6
	c0,3,1.3,5.4,4,7.3s6.1,2.8,10.3,2.8c3.3,0,6.3-0.5,8.9-1.4s4.6-2.1,6-3.5s2.6-2.9,3.5-4.6s1.5-3.1,1.7-4.4c0.3-1.2,0.4-2.3,0.4-3.3
	c0-4.3-2.1-7.5-6.4-9.7c-1.2-0.6-3.1-1.2-5.6-1.6c-2.5-0.5-4.4-1.1-5.8-1.8c-1.3-0.8-2-2-2-3.8c0-0.1,0-0.1,0-0.2"/>
<rect x="15.1" y="136.6" class="st2" width="505.9" height="96.8"/>
<g class="st3">
	<path class="st4" d="M16.8,141.6H19v1.9c0.5-0.7,1-1.1,1.5-1.4c0.7-0.5,1.6-0.8,2.5-0.8c1.1,0,1.9,0.3,2.6,0.8
		c0.4,0.3,0.7,0.7,1,1.3c0.5-0.7,1.1-1.3,1.8-1.6s1.4-0.5,2.3-0.5c1.8,0,3,0.7,3.7,2c0.4,0.7,0.5,1.7,0.5,2.8v9h-2.4v-9.4
		c0-0.9-0.2-1.5-0.7-1.9c-0.4-0.3-1-0.5-1.6-0.5c-0.9,0-1.7,0.3-2.3,0.9s-1,1.6-1,3v7.8h-2.3v-8.8c0-0.9-0.1-1.6-0.3-2
		c-0.3-0.6-1-0.9-1.9-0.9s-1.6,0.3-2.3,1c-0.7,0.7-1.1,1.9-1.1,3.6v7.1h-2.3v-13.4H16.8z"/>
	<path class="st4" d="M58,143c1.2,1.2,1.8,2.9,1.8,5.1c0,2.2-0.5,4-1.6,5.4s-2.7,2.1-4.9,2.1c-1.8,0-3.3-0.6-4.4-1.9
		c-1.1-1.3-1.6-2.9-1.6-5.1c0-2.3,0.6-4.1,1.7-5.4c1.1-1.3,2.7-2,4.6-2C55.3,141.2,56.8,141.8,58,143z M56.6,151.9
		c0.6-1.1,0.8-2.4,0.8-3.8c0-1.3-0.2-2.3-0.6-3.1c-0.6-1.2-1.7-1.9-3.3-1.9c-1.4,0-2.4,0.5-3,1.6s-0.9,2.3-0.9,3.8
		c0,1.4,0.3,2.6,0.9,3.6c0.6,1,1.6,1.4,3,1.4C55,153.6,56,153,56.6,151.9z"/>
	<path class="st4" d="M73,137.8h2.3v3.8h2.2v1.9h-2.2v8.8c0,0.5,0.2,0.8,0.5,0.9c0.2,0.1,0.5,0.1,0.9,0.1c0.1,0,0.2,0,0.4,0
		s0.3,0,0.4,0v1.8c-0.3,0.1-0.5,0.1-0.8,0.2s-0.6,0.1-0.9,0.1c-1.1,0-1.8-0.3-2.2-0.8c-0.4-0.5-0.6-1.2-0.6-2.1v-8.9h-1.8v-1.9H73
		V137.8z"/>
	<path class="st4" d="M89.7,136.6H92v2.6h-2.3V136.6z M89.7,141.7H92v13.4h-2.3V141.7z"/>
	<path class="st4" d="M115.1,143c1.2,1.2,1.8,2.9,1.8,5.1c0,2.2-0.5,4-1.6,5.4s-2.7,2.1-4.9,2.1c-1.8,0-3.3-0.6-4.4-1.9
		c-1.1-1.3-1.6-2.9-1.6-5.1c0-2.3,0.6-4.1,1.7-5.4c1.1-1.3,2.7-2,4.6-2C112.5,141.2,114,141.8,115.1,143z M113.7,151.9
		c0.6-1.1,0.8-2.4,0.8-3.8c0-1.3-0.2-2.3-0.6-3.1c-0.6-1.2-1.7-1.9-3.3-1.9c-1.4,0-2.4,0.5-3,1.6s-0.9,2.3-0.9,3.8
		c0,1.4,0.3,2.6,0.9,3.6s1.6,1.4,3,1.4C112.2,153.6,113.2,153,113.7,151.9z"/>
	<path class="st4" d="M129.7,141.6h2.2v1.9c0.6-0.8,1.3-1.4,2-1.7s1.5-0.5,2.4-0.5c1.9,0,3.2,0.7,3.9,2c0.4,0.7,0.6,1.8,0.6,3.1v8.6
		h-2.3v-8.5c0-0.8-0.1-1.5-0.4-2c-0.4-0.8-1.1-1.3-2.2-1.3c-0.5,0-1,0.1-1.3,0.2c-0.6,0.2-1.2,0.6-1.6,1.1c-0.4,0.4-0.6,0.9-0.7,1.4
		c-0.1,0.5-0.2,1.2-0.2,2v7.1h-2.3L129.7,141.6L129.7,141.6z"/>
	<path class="st4" d="M195.8,142.1c0.4,0.3,0.9,0.7,1.3,1.3v-1.7h2.1V154c0,1.7-0.3,3.1-0.8,4.1c-0.9,1.8-2.7,2.7-5.3,2.7
		c-1.4,0-2.7-0.3-3.7-1s-1.5-1.7-1.7-3.1h2.3c0.1,0.6,0.3,1.1,0.7,1.4c0.5,0.5,1.3,0.8,2.4,0.8c1.7,0,2.9-0.6,3.4-1.8
		c0.3-0.7,0.5-2,0.4-3.9c-0.5,0.7-1,1.2-1.6,1.5s-1.5,0.5-2.5,0.5c-1.5,0-2.7-0.5-3.8-1.6c-1.1-1-1.6-2.8-1.6-5.1s0.5-4,1.6-5.3
		s2.4-1.9,4-1.9C194.1,141.4,195,141.6,195.8,142.1z M196,144.6c-0.7-0.8-1.6-1.2-2.6-1.2c-1.6,0-2.7,0.7-3.3,2.2
		c-0.3,0.8-0.5,1.8-0.5,3.1c0,1.5,0.3,2.7,0.9,3.5c0.6,0.8,1.4,1.2,2.5,1.2c1.6,0,2.8-0.7,3.4-2.2c0.4-0.8,0.6-1.8,0.6-2.9
		C197.1,146.6,196.7,145.4,196,144.6z"/>
	<path class="st4" d="M212.7,141.6h2.2v2.3c0.2-0.5,0.6-1,1.3-1.7s1.5-1,2.4-1c0,0,0.1,0,0.2,0c0.1,0,0.3,0,0.5,0.1v2.4
		c-0.1,0-0.3,0-0.4,0c-0.1,0-0.2,0-0.4,0c-1.1,0-2,0.4-2.6,1.1s-0.9,1.6-0.9,2.5v7.8h-2.3V141.6z"/>
	<path class="st4" d="M238.4,146.9c0.5-0.1,0.9-0.3,1-0.7c0.1-0.2,0.2-0.5,0.2-0.9c0-0.8-0.3-1.3-0.8-1.7c-0.5-0.3-1.3-0.5-2.4-0.5
		c-1.2,0-2,0.3-2.5,1c-0.3,0.4-0.5,0.9-0.5,1.6h-2.1c0-1.7,0.6-2.8,1.6-3.5s2.2-1,3.6-1c1.6,0,2.9,0.3,3.9,0.9
		c1,0.6,1.5,1.5,1.5,2.8v7.8c0,0.2,0,0.4,0.1,0.6s0.3,0.2,0.6,0.2c0.1,0,0.2,0,0.3,0s0.3,0,0.4-0.1v1.7c-0.4,0.1-0.6,0.2-0.8,0.2
		s-0.4,0-0.8,0c-0.8,0-1.3-0.3-1.7-0.8c-0.2-0.3-0.3-0.7-0.4-1.2c-0.5,0.6-1.1,1.1-2,1.6c-0.9,0.4-1.8,0.7-2.9,0.7
		c-1.3,0-2.3-0.4-3.1-1.1c-0.8-0.8-1.2-1.7-1.2-2.8c0-1.2,0.4-2.2,1.2-2.9s1.8-1.1,3.1-1.3L238.4,146.9z M233.6,153
		c0.5,0.4,1,0.6,1.7,0.6c0.8,0,1.6-0.2,2.3-0.6c1.3-0.6,1.9-1.6,1.9-3v-1.8c-0.3,0.2-0.6,0.3-1.1,0.4c-0.4,0.1-0.9,0.2-1.3,0.3
		l-1.4,0.2c-0.8,0.1-1.4,0.3-1.9,0.5c-0.7,0.4-1.1,1-1.1,1.9C232.9,152.2,233.1,152.7,233.6,153z"/>
	<path class="st4" d="M255.3,141.7h2.2v1.8c0.5-0.6,1-1.1,1.5-1.4c0.8-0.5,1.7-0.8,2.7-0.8c1.5,0,2.8,0.6,3.9,1.8s1.6,2.8,1.6,5
		c0,2.9-0.8,5-2.3,6.3c-1,0.8-2.1,1.2-3.4,1.2c-1,0-1.9-0.2-2.6-0.7c-0.4-0.3-0.9-0.7-1.4-1.3v6.9h-2.3L255.3,141.7L255.3,141.7z
		 M263.8,152.2c0.7-0.9,1.1-2.2,1.1-4c0-1.1-0.2-2-0.5-2.8c-0.6-1.5-1.7-2.2-3.2-2.2c-1.6,0-2.7,0.8-3.2,2.4
		c-0.3,0.8-0.5,1.9-0.5,3.2c0,1,0.2,1.9,0.5,2.7c0.6,1.4,1.7,2.1,3.2,2.1C262.2,153.6,263.1,153.1,263.8,152.2z"/>
	<path class="st4" d="M279.8,136.5h2.3v6.9c0.5-0.7,1-1.2,1.4-1.4c0.7-0.5,1.6-0.7,2.7-0.7c2,0,3.3,0.7,4,2.1
		c0.4,0.7,0.6,1.8,0.6,3.1v8.6h-2.3v-8.5c0-1-0.1-1.7-0.4-2.2c-0.4-0.7-1.2-1.1-2.3-1.1c-0.9,0-1.8,0.3-2.6,1
		c-0.8,0.6-1.1,1.9-1.1,3.7v7.1h-2.3L279.8,136.5L279.8,136.5z"/>
	<path class="st4" d="M304.1,136.6h2.3v2.6h-2.3V136.6z M304.1,141.7h2.3v13.4h-2.3V141.7z"/>
	<path class="st4" d="M328.7,142.3c1,0.7,1.5,2,1.7,3.8h-2.2c-0.1-0.8-0.4-1.5-0.9-2.1c-0.5-0.5-1.2-0.8-2.3-0.8
		c-1.4,0-2.5,0.7-3.1,2.1c-0.4,0.9-0.6,2-0.6,3.4c0,1.3,0.3,2.5,0.9,3.4s1.5,1.4,2.7,1.4c0.9,0,1.7-0.3,2.2-0.9
		c0.5-0.6,0.9-1.4,1.1-2.3h2.2c-0.3,1.8-0.9,3.1-1.9,3.9s-2.3,1.2-3.9,1.2c-1.8,0-3.2-0.6-4.2-1.9c-1-1.3-1.6-2.9-1.6-4.8
		c0-2.4,0.6-4.2,1.7-5.5s2.6-2,4.4-2C326.5,141.2,327.7,141.6,328.7,142.3z"/>
	<path class="st4" d="M384.3,142c0.4,0.3,0.9,0.7,1.4,1.3v-6.8h2.2v18.6h-2v-1.9c-0.5,0.8-1.1,1.4-1.9,1.8s-1.5,0.6-2.5,0.6
		c-1.5,0-2.8-0.6-3.9-1.9c-1.1-1.3-1.6-2.9-1.6-5c0-2,0.5-3.7,1.5-5.1s2.4-2.2,4.3-2.2C382.8,141.4,383.6,141.6,384.3,142z
		 M379.3,152.1c0.6,1,1.6,1.5,2.9,1.5c1,0,1.9-0.5,2.6-1.4s1-2.2,1-3.9s-0.3-3-1-3.8s-1.5-1.2-2.6-1.2s-2.1,0.4-2.8,1.3
		c-0.7,0.9-1.1,2.2-1.1,3.9C378.4,149.9,378.7,151.2,379.3,152.1z"/>
	<path class="st4" d="M409.6,142c0.9,0.4,1.6,1,2,1.7c0.5,0.7,0.8,1.5,0.9,2.4c0.1,0.6,0.2,1.6,0.2,3h-9.8c0,1.4,0.4,2.5,1,3.3
		s1.5,1.2,2.8,1.2c1.2,0,2.1-0.4,2.8-1.2c0.4-0.5,0.7-1,0.8-1.6h2.2c-0.1,0.5-0.3,1-0.6,1.7c-0.3,0.6-0.7,1.1-1.1,1.5
		c-0.7,0.7-1.5,1.1-2.5,1.4c-0.5,0.1-1.2,0.2-1.8,0.2c-1.7,0-3.1-0.6-4.2-1.8c-1.2-1.2-1.7-2.9-1.7-5.1c0-2.2,0.6-3.9,1.8-5.3
		c1.2-1.3,2.7-2,4.6-2C407.8,141.3,408.7,141.5,409.6,142z M410.4,147.3c-0.1-1-0.3-1.8-0.6-2.4c-0.6-1.1-1.6-1.6-3.1-1.6
		c-1,0-1.9,0.4-2.6,1.1c-0.7,0.8-1.1,1.7-1.1,2.9H410.4z"/>
	<path class="st4" d="M426.9,150.9c0.1,0.8,0.3,1.3,0.6,1.7c0.6,0.7,1.6,1.1,3,1.1c0.9,0,1.6-0.2,2.3-0.5c0.7-0.4,1-0.9,1-1.7
		c0-0.6-0.3-1-0.8-1.3c-0.3-0.2-1-0.4-2-0.6l-1.8-0.5c-1.2-0.3-2-0.6-2.6-1c-1-0.6-1.5-1.5-1.5-2.5c0-1.3,0.5-2.3,1.4-3.1
		s2.2-1.2,3.8-1.2c2.1,0,3.5,0.6,4.5,1.8c0.6,0.8,0.8,1.6,0.8,2.4h-2.1c0-0.5-0.2-1-0.6-1.4c-0.5-0.6-1.5-0.9-2.8-0.9
		c-0.9,0-1.5,0.2-2,0.5s-0.7,0.8-0.7,1.3c0,0.6,0.3,1.1,0.9,1.4c0.3,0.2,0.8,0.4,1.5,0.6l1.5,0.4c1.7,0.4,2.8,0.8,3.3,1.1
		c0.9,0.6,1.3,1.5,1.3,2.7s-0.5,2.2-1.4,3.1s-2.3,1.3-4.2,1.3c-2,0-3.5-0.5-4.3-1.4s-1.3-2-1.4-3.4L426.9,150.9L426.9,150.9z"/>
	<path class="st4" d="M448.4,136.6h2.3v2.6h-2.3V136.6z M448.4,141.7h2.3v13.4h-2.3V141.7z"/>
	<path class="st4" d="M471.6,142.1c0.4,0.3,0.9,0.7,1.3,1.3v-1.7h2.1V154c0,1.7-0.3,3.1-0.8,4.1c-0.9,1.8-2.7,2.7-5.3,2.7
		c-1.4,0-2.7-0.3-3.7-1s-1.5-1.7-1.7-3.1h2.3c0.1,0.6,0.3,1.1,0.7,1.4c0.5,0.5,1.3,0.8,2.4,0.8c1.7,0,2.9-0.6,3.4-1.8
		c0.3-0.7,0.5-2,0.4-3.9c-0.5,0.7-1,1.2-1.6,1.5s-1.5,0.5-2.5,0.5c-1.5,0-2.7-0.5-3.8-1.6c-1.1-1-1.6-2.8-1.6-5.1s0.5-4,1.6-5.3
		s2.4-1.9,4-1.9C469.9,141.4,470.8,141.6,471.6,142.1z M471.9,144.6c-0.7-0.8-1.6-1.2-2.6-1.2c-1.6,0-2.7,0.7-3.3,2.2
		c-0.3,0.8-0.5,1.8-0.5,3.1c0,1.5,0.3,2.7,0.9,3.5s1.4,1.2,2.5,1.2c1.6,0,2.8-0.7,3.4-2.2c0.4-0.8,0.6-1.8,0.6-2.9
		C472.9,146.6,472.6,145.4,471.9,144.6z"/>
	<path class="st4" d="M488.4,141.6h2.2v1.9c0.6-0.8,1.3-1.4,2-1.7s1.5-0.5,2.4-0.5c1.9,0,3.2,0.7,3.9,2c0.4,0.7,0.6,1.8,0.6,3.1v8.6
		h-2.3v-8.5c0-0.8-0.1-1.5-0.4-2c-0.4-0.8-1.1-1.3-2.2-1.3c-0.5,0-1,0.1-1.3,0.2c-0.6,0.2-1.2,0.6-1.6,1.1c-0.4,0.4-0.6,0.9-0.7,1.4
		s-0.2,1.2-0.2,2v7.1h-2.3v-13.4H488.4z"/>
</g>
</svg>
